<?xml version="1.0" encoding="utf-8"?>
<!-- Uploaded to: SVG Repo, www.svgrepo.com, Generator: SVG Repo Mixer Tools -->
<svg width="800px" height="800px" viewBox="0 0 1024 1024" class="icon"  version="1.1" xmlns="http://www.w3.org/2000/svg"><path d="M670.02368 779.318272c97.256448 0 176.098304-78.841856 176.098304-176.098304 0-97.255424-78.841856-176.09728-176.09728-176.09728-97.257472 0-176.099328 78.841856-176.099328 176.09728 0 97.256448 78.841856 176.09728 176.098304 176.09728zM308.559872 575.415296c30.712832 0 55.609344-24.897536 55.609344-55.609344 0-30.712832-24.896512-55.610368-55.609344-55.610368s-55.610368 24.897536-55.610368 55.610368c0 30.711808 24.897536 55.609344 55.610368 55.609344zM67.584 426.99264c0-81.82784 66.511872-148.16256 148.424704-148.16256h592.908288c81.972224 0 148.424704 66.255872 148.424704 148.16256v333.919232c0 81.82784-66.512896 148.16256-148.424704 148.16256H216.008704C134.035456 909.074432 67.584 842.81856 67.584 760.911872V426.99264z" fill="#FFF200" /><path d="M493.090816 152.932352C471.0912 127.899648 431.331328 116.736 364.169216 116.736c-67.161088 0-106.92096 11.163648-128.919552 36.196352-21.315584 24.255488-21.315584 55.61856-21.315584 88.823808h40.96c0-27.447296 0-49.127424 11.123712-61.786112C279.18848 164.98176 311.294976 157.696 364.17024 157.696c52.87424 0 84.980736 7.28576 98.152448 22.274048 11.123712 12.658688 11.123712 34.338816 11.123712 61.786112h40.96c0-33.205248 0-64.56832-21.315584-88.823808M308.559872 575.41632c-30.711808 0-55.609344-24.897536-55.609344-55.610368 0-30.712832 24.897536-55.609344 55.609344-55.609344 30.712832 0 55.610368 24.896512 55.610368 55.609344s-24.897536 55.610368-55.610368 55.610368M670.02368 779.317248c-97.255424 0-176.09728-78.840832-176.09728-176.09728s78.841856-176.09728 176.09728-176.09728c97.256448 0 176.09728 78.840832 176.09728 176.09728s-78.840832 176.09728-176.09728 176.09728m138.893312-500.488192H216.008704C134.096896 278.829056 67.584 345.163776 67.584 426.991616v333.919232c0 81.906688 66.45248 148.163584 148.424704 148.163584h592.908288c81.911808 0 148.424704-66.33472 148.424704-148.16256V426.990592c0-81.906688-66.451456-148.16256-148.424704-148.16256M308.559872 616.37632c53.248 0 96.570368-43.321344 96.570368-96.570368 0-53.248-43.321344-96.569344-96.570368-96.569344-53.249024 0-96.569344 43.32032-96.569344 96.569344s43.32032 96.570368 96.569344 96.570368M670.02368 820.277248c29.285376 0 57.715712-5.74464 84.50048-17.074176 25.852928-10.934272 49.061888-26.578944 68.982784-46.49984 19.920896-19.920896 35.566592-43.129856 46.49984-68.98176 11.33056-26.786816 17.0752-55.217152 17.0752-84.50048 0-29.285376-5.74464-57.715712-17.074176-84.502528-10.934272-25.851904-26.579968-49.05984-46.500864-68.98176-19.920896-19.920896-43.13088-35.565568-68.98176-46.49984-26.785792-11.329536-55.216128-17.0752-84.501504-17.0752-29.284352 0-57.714688 5.745664-84.50048 17.074176-25.851904 10.93632-49.060864 26.579968-68.98176 46.500864-19.920896 19.920896-35.566592 43.13088-46.500864 68.98176-11.329536 26.78784-17.074176 55.217152-17.074176 84.501504s5.74464 57.714688 17.074176 84.501504c10.934272 25.851904 26.579968 49.060864 46.49984 68.98176 19.92192 19.920896 43.13088 35.565568 68.982784 46.49984 26.785792 11.329536 55.216128 17.074176 84.50048 17.074176m138.893312-500.488192c28.730368 0 55.728128 11.15136 76.019712 31.399936 20.277248 20.23424 31.444992 47.1552 31.444992 75.802624v333.919232c0 59.112448-48.20992 107.203584-107.464704 107.203584H216.008704c-28.730368 0-55.728128-11.15136-76.019712-31.40096C119.711744 816.479232 108.544 789.559296 108.544 760.910848V426.991616c0-59.111424 48.208896-107.20256 107.464704-107.20256h592.908288" fill="#000000" /></svg>